HIERARCHY
ROOT Bip001 Pelvis
{
	OFFSET 0.000000 -0.000000 0.000000
	CHANNELS 6 Xposition Yposition Zposition Xrotation Yrotation Zrotation
	JOINT Bip001 Spine
	{
		OFFSET -0.014297 0.000000 8.264778
		CHANNELS 6 Xposition Yposition Zposition Xrotation Yrotation Zrotation
		JOINT Bip001 Spine1
		{
			OFFSET 0.000087 -0.000000 17.959381
			CHANNELS 6 Xposition Yposition Zposition Xrotation Yrotation Zrotation
			JOINT Bip001 Spine2
			{
				OFFSET -1.966464 0.000000 17.852989
				CHANNELS 6 Xposition Yposition Zposition Xrotation Yrotation Zrotation
				JOINT Bip001 Neck
				{
					OFFSET -0.436517 -0.000004 17.884819
					CHANNELS 6 Xposition Yposition Zposition Xrotation Yrotation Zrotation
					JOINT Bip001 L Clavicle
					{
						OFFSET -0.865794 2.588945 -5.930813
						CHANNELS 6 Xposition Yposition Zposition Xrotation Yrotation Zrotation
						JOINT Bip001 L UpperArm
						{
							OFFSET 0.445493 21.569960 -4.044579
							CHANNELS 6 Xposition Yposition Zposition Xrotation Yrotation Zrotation
							JOINT Bip001 L Forearm
							{
								OFFSET -3.122920 15.624416 -22.666065
								CHANNELS 6 Xposition Yposition Zposition Xrotation Yrotation Zrotation
								JOINT Bip001 L Hand
								{
									OFFSET 8.306246 15.280380 -23.265007
									CHANNELS 6 Xposition Yposition Zposition Xrotation Yrotation Zrotation
									JOINT Bip001 L Finger0
									{
										OFFSET 4.111675 -1.467239 -1.262519
										CHANNELS 6 Xposition Yposition Zposition Xrotation Yrotation Zrotation
										JOINT Bip001 L Finger01
										{
											OFFSET 3.183778 0.228851 -2.388743
											CHANNELS 6 Xposition Yposition Zposition Xrotation Yrotation Zrotation
											JOINT Bip001 L Finger02
											{
												OFFSET 2.729791 0.858181 -3.099680
												CHANNELS 6 Xposition Yposition Zposition Xrotation Yrotation Zrotation
												End Site
												{
													OFFSET -3.503963 2.084713 -1.082795
												}
											}
										}
									}
									JOINT Bip001 L Finger1
									{
										OFFSET 6.461430 6.323715 -7.365056
										CHANNELS 6 Xposition Yposition Zposition Xrotation Yrotation Zrotation
										JOINT Bip001 L Finger11
										{
											OFFSET 1.914996 1.444202 -2.723308
											CHANNELS 6 Xposition Yposition Zposition Xrotation Yrotation Zrotation
											JOINT Bip001 L Finger12
											{
												OFFSET 1.667352 0.712597 -3.051701
												CHANNELS 6 Xposition Yposition Zposition Xrotation Yrotation Zrotation
												End Site
												{
													OFFSET -1.441792 -3.191792 -0.578317
												}
											}
										}
									}
									JOINT Bip001 L Finger2
									{
										OFFSET 3.712208 6.920097 -7.742708
										CHANNELS 6 Xposition Yposition Zposition Xrotation Yrotation Zrotation
										JOINT Bip001 L Finger21
										{
											OFFSET 1.238288 2.057152 -3.374288
											CHANNELS 6 Xposition Yposition Zposition Xrotation Yrotation Zrotation
											JOINT Bip001 L Finger22
											{
												OFFSET 1.058645 1.106079 -3.512475
												CHANNELS 6 Xposition Yposition Zposition Xrotation Yrotation Zrotation
												End Site
												{
													OFFSET -0.731730 -3.736404 -0.430648
												}
											}
										}
									}
									JOINT Bip001 L Finger3
									{
										OFFSET 1.065596 7.109749 -7.958859
										CHANNELS 6 Xposition Yposition Zposition Xrotation Yrotation Zrotation
										JOINT Bip001 L Finger31
										{
											OFFSET 0.162689 1.903969 -3.895146
											CHANNELS 6 Xposition Yposition Zposition Xrotation Yrotation Zrotation
											JOINT Bip001 L Finger32
											{
												OFFSET 0.110497 0.688858 -3.063546
												CHANNELS 6 Xposition Yposition Zposition Xrotation Yrotation Zrotation
												End Site
												{
													OFFSET -0.068952 -3.141018 0.036331
												}
											}
										}
									}
									JOINT Bip001 L Finger4
									{
										OFFSET -1.475887 6.679222 -8.037491
										CHANNELS 6 Xposition Yposition Zposition Xrotation Yrotation Zrotation
										JOINT Bip001 L Finger41
										{
											OFFSET -0.627697 1.008011 -3.131438
											CHANNELS 6 Xposition Yposition Zposition Xrotation Yrotation Zrotation
											JOINT Bip001 L Finger42
											{
												OFFSET -0.352720 0.251705 -2.926210
												CHANNELS 6 Xposition Yposition Zposition Xrotation Yrotation Zrotation
												End Site
												{
													OFFSET 0.970507 -2.774132 0.335836
												}
											}
										}
									}
								}
							}
						}
					}
					JOINT Bip001 R Clavicle
					{
						OFFSET -0.865795 -2.588937 -5.930813
						CHANNELS 6 Xposition Yposition Zposition Xrotation Yrotation Zrotation
						JOINT Bip001 R UpperArm
						{
							OFFSET 0.445494 -21.569963 -4.044598
							CHANNELS 6 Xposition Yposition Zposition Xrotation Yrotation Zrotation
							JOINT Bip001 R Forearm
							{
								OFFSET -3.122918 -15.624428 -22.666046
								CHANNELS 6 Xposition Yposition Zposition Xrotation Yrotation Zrotation
								JOINT Bip001 R Hand
								{
									OFFSET 8.306242 -15.280380 -23.264996
									CHANNELS 6 Xposition Yposition Zposition Xrotation Yrotation Zrotation
									JOINT Bip001 R Finger0
									{
										OFFSET 4.111671 1.467255 -1.262531
										CHANNELS 6 Xposition Yposition Zposition Xrotation Yrotation Zrotation
										JOINT Bip001 R Finger01
										{
											OFFSET 3.183773 -0.228855 -2.388740
											CHANNELS 6 Xposition Yposition Zposition Xrotation Yrotation Zrotation
											JOINT Bip001 R Finger02
											{
												OFFSET 2.729798 -0.858173 -3.099685
												CHANNELS 6 Xposition Yposition Zposition Xrotation Yrotation Zrotation
												End Site
												{
													OFFSET -3.503972 -2.084717 -1.082798
												}
											}
										}
									}
									JOINT Bip001 R Finger1
									{
										OFFSET 6.461424 -6.323700 -7.365068
										CHANNELS 6 Xposition Yposition Zposition Xrotation Yrotation Zrotation
										JOINT Bip001 R Finger11
										{
											OFFSET 1.914989 -1.444206 -2.723289
											CHANNELS 6 Xposition Yposition Zposition Xrotation Yrotation Zrotation
											JOINT Bip001 R Finger12
											{
												OFFSET 1.667364 -0.712597 -3.051710
												CHANNELS 6 Xposition Yposition Zposition Xrotation Yrotation Zrotation
												End Site
												{
													OFFSET -1.441796 3.191803 -0.578319
												}
											}
										}
									}
									JOINT Bip001 R Finger2
									{
										OFFSET 3.712202 -6.920086 -7.742719
										CHANNELS 6 Xposition Yposition Zposition Xrotation Yrotation Zrotation
										JOINT Bip001 R Finger21
										{
											OFFSET 1.238291 -2.057163 -3.374288
											CHANNELS 6 Xposition Yposition Zposition Xrotation Yrotation Zrotation
											JOINT Bip001 R Finger22
											{
												OFFSET 1.058646 -1.106071 -3.512475
												CHANNELS 6 Xposition Yposition Zposition Xrotation Yrotation Zrotation
												End Site
												{
													OFFSET -0.731731 3.736404 -0.430648
												}
											}
										}
									}
									JOINT Bip001 R Finger3
									{
										OFFSET 1.065590 -7.109730 -7.958874
										CHANNELS 6 Xposition Yposition Zposition Xrotation Yrotation Zrotation
										JOINT Bip001 R Finger31
										{
											OFFSET 0.162689 -1.903980 -3.895140
											CHANNELS 6 Xposition Yposition Zposition Xrotation Yrotation Zrotation
											JOINT Bip001 R Finger32
											{
												OFFSET 0.110497 -0.688858 -3.063531
												CHANNELS 6 Xposition Yposition Zposition Xrotation Yrotation Zrotation
												End Site
												{
													OFFSET -0.068962 3.141003 0.036331
												}
											}
										}
									}
									JOINT Bip001 R Finger4
									{
										OFFSET -1.475892 -6.679207 -8.037502
										CHANNELS 6 Xposition Yposition Zposition Xrotation Yrotation Zrotation
										JOINT Bip001 R Finger41
										{
											OFFSET -0.627693 -1.008003 -3.131438
											CHANNELS 6 Xposition Yposition Zposition Xrotation Yrotation Zrotation
											JOINT Bip001 R Finger42
											{
												OFFSET -0.352728 -0.251724 -2.926219
												CHANNELS 6 Xposition Yposition Zposition Xrotation Yrotation Zrotation
												End Site
												{
													OFFSET 0.970512 2.774139 0.335838
												}
											}
										}
									}
								}
							}
						}
					}
					JOINT Bip001 Head
					{
						OFFSET 4.876034 -0.000003 7.899368
						CHANNELS 6 Xposition Yposition Zposition Xrotation Yrotation Zrotation
						End Site
						{
							OFFSET 6.970716 -0.000021 -2.620415
						}
					}
				}
			}
		}
		JOINT Bip001 L Thigh
		{
			OFFSET 0.014301 9.466019 -8.264778
			CHANNELS 6 Xposition Yposition Zposition Xrotation Yrotation Zrotation
			JOINT Bip001 L Calf
			{
				OFFSET 4.539901 6.650173 -49.948105
				CHANNELS 6 Xposition Yposition Zposition Xrotation Yrotation Zrotation
				JOINT Bip001 L Foot
				{
					OFFSET -6.357688 5.562662 -40.500885
					CHANNELS 6 Xposition Yposition Zposition Xrotation Yrotation Zrotation
					JOINT Bip001 L Toe0
					{
						OFFSET 13.838218 1.202232 -10.399658
						CHANNELS 6 Xposition Yposition Zposition Xrotation Yrotation Zrotation
						End Site
						{
							OFFSET 0.000000 0.000002 17.352074
						}
					}
				}
			}
		}
		JOINT Bip001 R Thigh
		{
			OFFSET 0.014301 -9.466019 -8.264778
			CHANNELS 6 Xposition Yposition Zposition Xrotation Yrotation Zrotation
			JOINT Bip001 R Calf
			{
				OFFSET 4.539902 -6.650185 -49.948105
				CHANNELS 6 Xposition Yposition Zposition Xrotation Yrotation Zrotation
				JOINT Bip001 R Foot
				{
					OFFSET -6.357688 -5.562672 -40.500877
					CHANNELS 6 Xposition Yposition Zposition Xrotation Yrotation Zrotation
					JOINT Bip001 R Toe0
					{
						OFFSET 13.838215 -1.202230 -10.399658
						CHANNELS 6 Xposition Yposition Zposition Xrotation Yrotation Zrotation
						End Site
						{
							OFFSET 0.000000 0.000000 17.352074
						}
					}
				}
			}
		}
	}
}
MOTION
Frames: 4
Frame Time: 0.033333
-0.000003 0.000000 -70.399521 -28.006921 -88.939711 -70.626806 -0.320396 -0.281614 8.257981 -1.582039 -7.903373 -11.807005 -0.014215 0.000004 17.959354 12.084547 4.783281 -0.202104 -1.966465 -0.000005 17.852970 0.000002 0.000000 0.000002 -0.436525 -0.000010 17.884840 -7.027543 16.276769 14.193320 -0.865796 2.588934 -5.930813 -49.176662 -58.982556 -47.684921 0.445506 21.569948 -4.044588 -23.875549 3.080838 -20.521612 -3.122913 15.624449 -22.666023 -33.413415 -29.367768 18.551513 8.306197 15.280373 -23.264977 -18.852249 35.114283 -55.156756 4.111682 -1.467237 -1.262523 0.000004 0.000009 -0.000008 3.183765 0.228852 -2.388733 -0.000003 0.000000 -0.000004 2.729836 0.858228 -3.099702 -77.940791 19.684639 69.200150 6.461432 6.323778 -7.364996 -89.218335 26.589874 2.351170 1.914987 1.444202 -2.723294 -0.000000 -0.000005 0.000011 1.667344 0.712615 -3.051667 -64.336489 48.677474 -9.862047 3.712210 6.920137 -7.742669 -66.096847 18.614986 5.448173 1.238290 2.057153 -3.374285 -0.000001 -0.000003 0.000003 1.058644 1.106114 -3.512425 -65.753227 21.854549 -2.808962 1.065610 7.109786 -7.958823 -76.924951 17.821212 15.321347 0.162692 1.903977 -3.895133 0.000004 -0.000004 0.000003 0.110502 0.688884 -3.063504 -72.883781 20.627378 5.811409 -1.475882 6.679260 -8.037460 -51.421158 13.270478 6.267862 -0.627696 1.008018 -3.131432 -0.000003 0.000004 -0.000029 -0.352712 0.251744 -2.926190 -97.286325 22.784140 16.562510 -0.865796 -2.588947 -5.930809 -60.157957 -26.156203 11.106948 0.445492 -21.569969 -4.044589 41.871614 -3.583983 11.770760 -3.122922 -15.624430 -22.666063 -36.818200 14.093753 21.684923 8.306252 -15.280368 -23.265005 -0.000006 -0.000004 0.000001 4.111677 1.467235 -1.262526 -0.000001 -0.000003 -0.000009 3.183791 -0.228853 -2.388741 -0.000006 0.000006 0.000003 2.729799 -0.858166 -3.099689 -0.000000 0.000009 0.000004 6.461435 -6.323720 -7.365069 -0.000005 0.000005 0.000001 1.914993 -1.444200 -2.723293 -0.000000 0.000001 -0.000006 1.667361 -0.712582 -3.051713 0.000008 -0.000004 -0.000006 3.712215 -6.920106 -7.742723 -0.000001 -0.000001 0.000003 1.238300 -2.057172 -3.374285 -0.000000 -0.000004 -0.000015 1.058639 -1.106059 -3.512489 0.000000 0.000001 -0.000024 1.065599 -7.109748 -7.958871 -0.000000 0.000000 0.000007 0.162699 -1.903972 -3.895126 0.000002 -0.000001 0.000007 0.110487 -0.688871 -3.063542 0.000005 0.000002 -0.000338 -1.475887 -6.679225 -8.037498 0.000009 0.000005 0.000019 -0.627700 -1.008018 -3.131433 0.000002 0.000003 0.000065 -0.352723 -0.251706 -2.926234 -0.000009 -0.000010 -0.000052 4.876040 -0.000002 7.899379 -4.252878 -17.499230 -66.196103 0.020884 9.466029 -8.264772 -13.117031 5.835703 28.756486 4.539890 6.650181 -49.948112 42.223478 44.687322 -14.376536 -6.357679 5.562670 -40.500870 -0.000000 0.000000 -0.000003 13.838218 1.202226 -10.399673 -0.000002 -0.000001 0.000076 0.020885 -9.466009 -8.264771 -19.055611 -20.088988 -13.483831 4.539898 -6.650179 -49.948105 16.361899 27.744688 -44.626397 -6.357692 -5.562671 -40.500877 0.000003 0.000005 0.000003 13.838211 -1.202232 -10.399657 -0.000001 -0.000002 0.000081 
-0.000003 0.000000 -70.399521 -28.006921 -88.939711 -70.626806 -0.320396 -0.281614 8.257981 -1.582039 -7.903373 -11.807005 -0.014215 0.000003 17.959356 16.007114 6.319955 -0.485425 -1.966460 0.000006 17.852978 0.000000 0.000000 -0.000002 -0.436522 -0.000012 17.884838 -10.339233 21.111191 19.512175 -0.865796 2.588936 -5.930817 -49.176665 -58.982556 -47.684918 0.445500 21.569967 -4.044597 -22.678943 0.998579 -25.914064 -3.122917 15.624448 -22.666027 -33.488773 -35.270434 18.279570 8.306198 15.280380 -23.264977 -18.852241 35.114293 -55.156756 4.111677 -1.467233 -1.262527 0.000008 0.000007 -0.000006 3.183766 0.228849 -2.388731 -0.000008 -0.000003 0.000001 2.729839 0.858228 -3.099710 -77.940791 19.684650 69.200157 6.461428 6.323776 -7.365012 -89.218328 26.589872 2.351171 1.914992 1.444207 -2.723301 0.000001 -0.000003 0.000006 1.667343 0.712619 -3.051656 -64.336489 48.677474 -9.862042 3.712210 6.920142 -7.742673 -66.096847 18.614987 5.448173 1.238288 2.057160 -3.374285 -0.000000 -0.000001 0.000005 1.058639 1.106113 -3.512429 -65.753234 21.854546 -2.808965 1.065605 7.109790 -7.958826 -76.924951 17.821207 15.321349 0.162689 1.903977 -3.895139 0.000004 -0.000002 -0.000001 0.110504 0.688882 -3.063497 -72.883788 20.627378 5.811414 -1.475884 6.679256 -8.037465 -51.421147 13.270474 6.267861 -0.627692 1.008018 -3.131428 0.000001 -0.000001 -0.000037 -0.352714 0.251743 -2.926186 -97.286325 22.784142 16.562512 -0.865800 -2.588943 -5.930815 -60.157963 -26.156199 11.106949 0.445493 -21.569958 -4.044596 47.520628 -2.569925 10.283596 -3.122919 -15.624419 -22.666061 -35.676783 17.873280 11.941330 8.306227 -15.280384 -23.265009 -0.000003 -0.000002 0.000006 4.111673 1.467234 -1.262532 0.000001 0.000003 -0.000005 3.183784 -0.228835 -2.388741 -0.000000 0.000001 0.000005 2.729805 -0.858177 -3.099687 -0.000004 0.000008 0.000003 6.461426 -6.323720 -7.365071 -0.000007 0.000006 0.000002 1.914985 -1.444207 -2.723298 0.000003 0.000001 -0.000007 1.667357 -0.712593 -3.051708 0.000005 0.000000 -0.000008 3.712204 -6.920105 -7.742723 -0.000002 0.000000 0.000003 1.238294 -2.057157 -3.374284 0.000002 -0.000004 -0.000012 1.058641 -1.106068 -3.512484 -0.000007 -0.000001 -0.000023 1.065592 -7.109756 -7.958879 0.000002 -0.000001 0.000008 0.162704 -1.903973 -3.895131 -0.000006 -0.000004 0.000006 0.110512 -0.688863 -3.063538 0.000010 -0.000002 -0.000337 -1.475891 -6.679237 -8.037496 0.000004 0.000006 0.000019 -0.627696 -1.008022 -3.131444 0.000003 0.000001 0.000065 -0.352711 -0.251707 -2.926239 -0.000013 -0.000010 -0.000056 4.876038 0.000003 7.899371 -4.252882 -17.499237 -66.196103 0.020884 9.466028 -8.264772 -6.325108 8.133417 39.248121 4.539894 6.650181 -49.948109 50.154701 43.322097 -18.846433 -6.357684 5.562665 -40.500877 0.000001 0.000002 -0.000004 13.838207 1.202239 -10.399659 0.000002 -0.000004 0.000078 0.020886 -9.466009 -8.264771 -18.973120 -20.166408 -16.079592 4.539898 -6.650188 -49.948101 11.745585 29.033273 -38.026815 -6.357683 -5.562675 -40.500877 0.000003 0.000004 0.000005 13.838212 -1.202236 -10.399650 -0.000000 -0.000002 0.000080 
-0.000003 0.000000 -70.399521 -28.006921 -88.939711 -70.626806 -0.320396 -0.281614 8.257981 -1.582039 -7.903373 -11.807005 -0.014215 0.000004 17.959356 19.478202 7.654381 -0.823003 -1.966463 0.000001 17.852962 0.000000 0.000000 -0.000004 -0.436516 0.000008 17.884846 -13.733373 25.082772 24.574804 -0.865804 2.588939 -5.930817 -49.176648 -58.982549 -47.684935 0.445496 21.569958 -4.044596 -21.796718 -0.987609 -30.531431 -3.122917 15.624436 -22.666018 -33.586605 -40.278069 17.868803 8.306197 15.280378 -23.264977 -18.852244 35.114286 -55.156762 4.111675 -1.467233 -1.262526 0.000007 0.000009 -0.000003 3.183769 0.228852 -2.388739 -0.000005 0.000000 -0.000004 2.729831 0.858223 -3.099705 -77.940791 19.684644 69.200157 6.461431 6.323772 -7.365008 -89.218328 26.589867 2.351169 1.914998 1.444214 -2.723288 -0.000003 -0.000004 0.000006 1.667355 0.712620 -3.051649 -64.336489 48.677474 -9.862052 3.712208 6.920136 -7.742676 -66.096847 18.614984 5.448177 1.238293 2.057160 -3.374287 0.000002 0.000000 0.000004 1.058637 1.106103 -3.512425 -65.753227 21.854544 -2.808964 1.065609 7.109792 -7.958830 -76.924951 17.821207 15.321351 0.162688 1.903984 -3.895133 0.000003 -0.000003 -0.000000 0.110506 0.688882 -3.063501 -72.883788 20.627374 5.811415 -1.475888 6.679260 -8.037461 -51.421154 13.270471 6.267866 -0.627696 1.008018 -3.131430 -0.000000 -0.000002 -0.000033 -0.352721 0.251745 -2.926183 -97.286319 22.784136 16.562510 -0.865808 -2.588943 -5.930814 -60.157963 -26.156199 11.106946 0.445511 -21.569965 -4.044596 52.158521 -1.870758 8.991514 -3.122916 -15.624429 -22.666067 -33.914461 20.850117 3.274118 8.306247 -15.280380 -23.265003 -0.000005 -0.000002 0.000000 4.111678 1.467238 -1.262524 0.000007 0.000003 -0.000003 3.183771 -0.228849 -2.388738 -0.000008 0.000004 0.000003 2.729784 -0.858159 -3.099686 0.000005 0.000005 0.000002 6.461430 -6.323716 -7.365071 -0.000009 0.000007 0.000005 1.914990 -1.444189 -2.723299 0.000007 0.000001 -0.000014 1.667349 -0.712600 -3.051708 0.000004 -0.000006 -0.000009 3.712214 -6.920101 -7.742717 0.000006 -0.000001 0.000004 1.238288 -2.057165 -3.374282 -0.000000 -0.000001 -0.000006 1.058656 -1.106067 -3.512484 0.000002 -0.000001 -0.000026 1.065597 -7.109745 -7.958869 -0.000000 0.000004 0.000010 0.162690 -1.903973 -3.895140 -0.000007 -0.000003 0.000007 0.110505 -0.688863 -3.063545 0.000007 0.000002 -0.000337 -1.475882 -6.679229 -8.037493 0.000007 0.000003 0.000021 -0.627686 -1.008022 -3.131431 0.000002 0.000000 0.000065 -0.352721 -0.251706 -2.926232 -0.000009 -0.000010 -0.000057 4.876036 0.000005 7.899379 -4.252881 -17.499226 -66.196103 0.020884 9.466028 -8.264772 -0.852863 11.060946 48.082660 4.539899 6.650178 -49.948109 56.821269 41.758711 -22.435046 -6.357681 5.562654 -40.500870 -0.000004 0.000004 -0.000004 13.838207 1.202237 -10.399656 -0.000001 -0.000003 0.000078 0.020885 -9.466009 -8.264771 -18.942215 -20.197528 -18.378038 4.539904 -6.650191 -49.948101 7.580981 29.894601 -32.142966 -6.357688 -5.562678 -40.500893 0.000002 0.000004 0.000004 13.838211 -1.202237 -10.399657 0.000000 -0.000002 0.000078 
-0.000003 0.000000 -70.399521 -28.006921 -88.939711 -70.626806 -0.320396 -0.281614 8.257981 -1.582039 -7.903373 -11.807005 -0.014215 0.000005 17.959356 22.135026 8.655755 -1.135358 -1.966462 0.000004 17.852974 0.000005 0.000001 -0.000000 -0.436506 -0.000005 17.884844 -16.631651 27.887715 28.688017 -0.865808 2.588944 -5.930815 -49.176669 -58.982549 -47.684921 0.445502 21.569967 -4.044591 -21.237510 -2.575738 -33.972961 -3.122919 15.624449 -22.666029 -33.700269 -43.985517 17.448203 8.306197 15.280372 -23.264977 -18.852244 35.114286 -55.156759 4.111679 -1.467237 -1.262530 0.000005 0.000007 -0.000006 3.183765 0.228857 -2.388737 -0.000007 0.000002 -0.000011 2.729836 0.858228 -3.099700 -77.940791 19.684650 69.200157 6.461434 6.323768 -7.365016 -89.218335 26.589872 2.351172 1.914999 1.444214 -2.723295 -0.000003 0.000001 0.000005 1.667344 0.712626 -3.051656 -64.336489 48.677478 -9.862045 3.712213 6.920126 -7.742677 -66.096847 18.614989 5.448179 1.238289 2.057145 -3.374283 -0.000000 0.000003 0.000007 1.058632 1.106113 -3.512422 -65.753227 21.854541 -2.808958 1.065611 7.109783 -7.958830 -76.924958 17.821210 15.321347 0.162689 1.903984 -3.895137 0.000001 -0.000001 0.000001 0.110499 0.688884 -3.063505 -72.883781 20.627376 5.811412 -1.475883 6.679249 -8.037464 -51.421154 13.270480 6.267860 -0.627693 1.008011 -3.131425 -0.000000 -0.000000 -0.000035 -0.352712 0.251745 -2.926194 -97.286325 22.784142 16.562512 -0.865802 -2.588939 -5.930808 -60.157963 -26.156201 11.106947 0.445509 -21.569960 -4.044605 55.516905 -1.442564 8.022075 -3.122931 -15.624435 -22.666054 -32.155977 22.831138 -3.378363 8.306227 -15.280379 -23.265003 -0.000009 -0.000003 0.000005 4.111689 1.467234 -1.262524 0.000005 0.000001 -0.000003 3.183778 -0.228854 -2.388746 -0.000003 0.000003 0.000004 2.729806 -0.858166 -3.099677 0.000005 0.000006 0.000007 6.461438 -6.323723 -7.365070 -0.000003 0.000002 0.000003 1.914996 -1.444189 -2.723292 0.000005 0.000001 -0.000013 1.667365 -0.712590 -3.051710 0.000005 -0.000001 -0.000008 3.712214 -6.920101 -7.742723 0.000006 -0.000001 0.000001 1.238299 -2.057164 -3.374285 0.000003 -0.000001 -0.000007 1.058639 -1.106051 -3.512485 0.000002 -0.000001 -0.000026 1.065603 -7.109748 -7.958875 0.000007 0.000001 0.000010 0.162685 -1.903972 -3.895135 0.000002 0.000001 0.000006 0.110503 -0.688871 -3.063543 0.000006 0.000000 -0.000336 -1.475875 -6.679233 -8.037493 0.000014 0.000002 0.000021 -0.627701 -1.008018 -3.131429 0.000003 0.000001 0.000063 -0.352717 -0.251691 -2.926233 -0.000011 -0.000009 -0.000055 4.876036 0.000005 7.899371 -4.252880 -17.499230 -66.196110 0.020884 9.466029 -8.264772 2.891891 13.725981 54.457682 4.539904 6.650179 -49.948112 61.672524 40.369078 -24.921139 -6.357687 5.562666 -40.500893 0.000005 0.000006 -0.000004 13.838223 1.202227 -10.399659 0.000001 -0.000001 0.000082 0.020885 -9.466009 -8.264771 -18.939797 -20.200484 -20.137257 4.539905 -6.650187 -49.948101 4.364710 30.364132 -27.632611 -6.357694 -5.562673 -40.500885 0.000003 0.000002 0.000002 13.838206 -1.202230 -10.399650 -0.000000 -0.000002 0.000080 
